# xmcd
#
# Track frame offsets:
#	150
#	10805
#	22217
#	34517
#	46000
#	58260
#	69955
#	81552
#	93204
#	104020
#	114800
#	124925
#	137775
#	150310
#	164715
#	174225
#	184655
#	196882
#	215175
#	227562
#	241055
#	255525
#	287155
#	313485
#
# Disc length: 4404 seconds
#
# Revision: 2
# Processed by: cddbd v1.5.2PL0 Copyright (c) Steve Scherf et al.
# Submitted via: audiograbber 1.83.01
#
DISCID=50113218
DTITLE=Various Artist - Night Owl 2
DYEAR=1900
DGENRE=Northern Soul
TTITLE0=Fred Hughes - Don't Let Me Down
TTITLE1=Sam Fletcher - I'd Think It Over Twice
TTITLE2=Du-Ettes - Every Beat Of My Heart
TTITLE3=Joseph Moore - I Still Can't Get You
TTITLE4=Ellie Greenwich - Baby
TTITLE5=Nolan Chance - Just Like The Weather
TTITLE6=Holly Maxwell - Only When You're Lonely
TTITLE7=Dee Clark - That's My Girl
TTITLE8=Mousie and The Traps - It's All The Way
TTITLE9=Don Varner - Tear Stained Face
TTITLE10=Ringleaders - Baby What Has Happened To Our Love
TTITLE11=Kenny Shephard - What Difference Does It Make
TTITLE12=Jackie Beavers - Lover Come Back
TTITLE13=Electrifying Cashmeres - What Does It Take (To Win Your Love)
TTITLE14=Barbara Lance - Congratulations Baby
TTITLE15=Major Lance - Little Young Lover
TTITLE16=Montclairs - Hung Up On Your Love
TTITLE17=Skull Snaps - My Hang Up Is You
TTITLE18=Bobby Foster - If You Really Need A Friend
TTITLE19=Impressions - I'll Always Be There
TTITLE20=Winstons - Colour Him Father
TTITLE21=Skip Mahoney - Janice (Don't Be So Blind To Love)
TTITLE22=Eddie Holman - This Will Be A Night To Remember
TTITLE23=Bobby Womack - So Many Sides Of You
EXTD=
EXTT0=
EXTT1=
EXTT2=
EXTT3=
EXTT4=
EXTT5=
EXTT6=
EXTT7=
EXTT8=
EXTT9=
EXTT10=
EXTT11=
EXTT12=
EXTT13=
EXTT14=
EXTT15=
EXTT16=
EXTT17=
EXTT18=
EXTT19=
EXTT20=
EXTT21=
EXTT22=
EXTT23=
PLAYORDER=
